<?xml version="1.0" encoding="UTF-8" standalone="no"?>
<svg width="18px" height="18px" viewBox="0 0 18 18" version="1.1" xmlns="http://www.w3.org/2000/svg" xmlns:xlink="http://www.w3.org/1999/xlink" xmlns:sketch="http://www.bohemiancoding.com/sketch/ns">
    <!-- Generator: Sketch 3.1 (8751) - http://www.bohemiancoding.com/sketch -->
    <title>Shape</title>
    <desc>Created with Sketch.</desc>
    <defs></defs>
    <g id="Page-1" stroke="none" stroke-width="1" fill="none" fill-rule="evenodd" sketch:type="MSPage">
        <g id="info" sketch:type="MSLayerGroup" fill="#A8ABBC">
            <g id="Page-1" sketch:type="MSShapeGroup">
                <g id="1430803067_info-alt">
                    <path d="M9,0.003 C4.02945882,0.003 0,4.03245882 0,9.003 C0,13.9735412 4.02945882,18.003 9,18.003 C13.9705412,18.003 18,13.9737529 18,9.003 C18,4.03224706 13.9705412,0.003 9,0.003 L9,0.003 L9,0.003 Z M8.95510588,14.0360118 C8.95510588,14.0360118 8.53750588,14.3136353 8.25204706,14.3123647 C8.22663529,14.3240118 8.2116,14.3307882 8.2116,14.3307882 L8.21223529,14.3123647 C8.15230588,14.3096118 8.09195294,14.3011412 8.03117647,14.2858941 L7.94096471,14.2636588 C7.44247059,14.1399882 7.17861176,13.6457294 7.30270588,13.1474471 L7.99665882,10.3498235 L8.30985882,9.08622353 C8.60124706,7.91304706 7.38592941,9.33568235 7.13668235,8.79525882 C6.97214118,8.43801176 8.082,7.68836471 8.89284706,7.12316471 C8.89284706,7.12316471 9.31002353,6.84596471 9.59569412,6.84702353 C9.62131765,6.83516471 9.63635294,6.8286 9.63635294,6.8286 L9.63529412,6.84702353 C9.69564706,6.84977647 9.756,6.85824706 9.81677647,6.87328235 L9.90698824,6.89572941 C10.4054824,7.0194 10.7091529,7.52361176 10.5854824,8.02189412 L9.89174118,10.8197294 L9.57790588,12.0833294 C9.28694118,13.2565059 10.4821412,11.8283647 10.7311765,12.3694235 C10.8957176,12.7262471 9.76574118,13.4708118 8.95510588,14.0360118 L8.95510588,14.0360118 L8.95510588,14.0360118 Z M10.7140235,5.2914 C10.5408,5.98916471 9.83477647,6.4146 9.13722353,6.24137647 C8.43924706,6.06815294 8.01381176,5.36234118 8.18703529,4.66436471 C8.36025882,3.96638824 9.06628235,3.54116471 9.76383529,3.71438824 C10.4618118,3.8874 10.8870353,4.59342353 10.7140235,5.2914 L10.7140235,5.2914 L10.7140235,5.2914 Z" id="Shape"></path>
                </g>
            </g>
        </g>
    </g>
</svg>