<?xml version="1.0" encoding="UTF-8" standalone="no"?>
<svg width="19px" height="19px" viewBox="0 0 19 19" version="1.1" xmlns="http://www.w3.org/2000/svg" xmlns:xlink="http://www.w3.org/1999/xlink" xmlns:sketch="http://www.bohemiancoding.com/sketch/ns">
    <!-- Generator: Sketch 3.1 (8751) - http://www.bohemiancoding.com/sketch -->
    <title>Oval 15 + i</title>
    <desc>Created with Sketch.</desc>
    <defs></defs>
    <g id="Page-1" stroke="none" stroke-width="1" fill="none" fill-rule="evenodd" sketch:type="MSPage">
        <g id="Artboard-4" sketch:type="MSArtboardGroup" transform="translate(-1002.000000, -25.000000)">
            <g id="Group" sketch:type="MSLayerGroup" transform="translate(261.000000, 25.000000)">
                <g transform="translate(736.000000, 1.000000)" id="Oval-15-+-i" sketch:type="MSShapeGroup">
                    <g transform="translate(6.000000, 0.000000)">
                        <g>
                            <path d="M8.5,16.6923077 C13.1944204,16.6923077 17,12.8867281 17,8.19230769 C17,3.49788732 13.1944204,-0.307692308 8.5,-0.307692308 C3.80557963,-0.307692308 0,3.49788732 0,8.19230769 C0,12.8867281 3.80557963,16.6923077 8.5,16.6923077 Z" id="Oval-15" stroke="#FFFFFF"></path>
                            <path d="M8.32543945,4.22265625 C8.55460727,4.22265625 8.74885988,4.30322185 8.90820312,4.46435547 C9.06754637,4.62548909 9.1472168,4.81884653 9.1472168,5.04443359 C9.1472168,5.27360141 9.06754637,5.46874919 8.90820312,5.62988281 C8.74885988,5.79101643 8.55460727,5.87158203 8.32543945,5.87158203 C8.09985239,5.87158203 7.90649495,5.79101643 7.74536133,5.62988281 C7.58422771,5.46874919 7.50366211,5.27360141 7.50366211,5.04443359 C7.50366211,4.81884653 7.58333254,4.62548909 7.74267578,4.46435547 C7.90201903,4.30322185 8.09627164,4.22265625 8.32543945,4.22265625 L8.32543945,4.22265625 Z M6.85375977,12 L6.85375977,11.6025391 C7.25480344,11.5738931 7.48396781,11.542562 7.54125977,11.5085449 C7.59855172,11.4745278 7.63435865,11.4109705 7.64868164,11.3178711 C7.68448911,11.12093 7.70239258,10.6142619 7.70239258,9.79785156 C7.70239258,8.67707773 7.68627946,8.03971431 7.65405273,7.88574219 C7.63972975,7.81412725 7.61645524,7.76757823 7.58422852,7.74609375 C7.51261357,7.69954404 7.26912643,7.67447918 6.85375977,7.67089844 L6.85375977,7.26269531 C7.39445257,7.20540336 7.80265162,7.14453157 8.07836914,7.08007812 C8.35408667,7.01562468 8.65486491,6.91715561 8.98071289,6.78466797 L9.10961914,6.85449219 C9.06665018,7.41308873 9.04516602,7.93766031 9.04516602,8.42822266 L9.04516602,10.2543945 C9.04516602,10.8774445 9.05948879,11.2462559 9.08813477,11.3608398 C9.10245775,11.4252933 9.1311033,11.4682616 9.17407227,11.4897461 C9.27075244,11.5362958 9.50528785,11.5667317 9.87768555,11.5810547 L9.87768555,12 C9.36921946,11.985677 8.81600234,11.9785156 8.21801758,11.9785156 C7.70239,11.9785156 7.24764194,11.985677 6.85375977,12 L6.85375977,12 Z" id="i" fill="#FFFFFF"></path>
                        </g>
                    </g>
                </g>
            </g>
        </g>
    </g>
</svg>