<?xml version="1.0" encoding="UTF-8" standalone="no"?>
<svg width="19px" height="19px" viewBox="0 0 19 19" version="1.1" xmlns="http://www.w3.org/2000/svg" xmlns:xlink="http://www.w3.org/1999/xlink" xmlns:sketch="http://www.bohemiancoding.com/sketch/ns">
    <!-- Generator: Sketch 3.1 (8751) - http://www.bohemiancoding.com/sketch -->
    <title>Shape</title>
    <desc>Created with Sketch.</desc>
    <defs></defs>
    <g id="Page-1" stroke="none" stroke-width="1" fill="none" fill-rule="evenodd" sketch:type="MSPage">
        <g id="soundcloud" sketch:type="MSLayerGroup" transform="translate(1.000000, 0.000000)" fill="#A8ABBC">
            <g id="Page-1" sketch:type="MSShapeGroup">
                <g id="1430802737_74-soundcloud">
                    <path d="M8.7233655,0.158 C3.75260526,0.158 -0.277,4.18687427 -0.277,9.1576345 C-0.277,14.1283947 3.75260526,18.158 8.7233655,18.158 C13.6933947,18.158 17.723,14.1283947 17.723,9.1576345 C17.723,4.18687427 13.6930292,0.158 8.7233655,0.158 L8.7233655,0.158 Z M2.69229825,10.3794912 C2.68827778,10.408 2.66744444,10.4281023 2.64185965,10.4281023 C2.61554386,10.4281023 2.59507602,10.408 2.59142105,10.3794912 L2.49931579,9.69052924 L2.59142105,8.99023684 C2.59507602,8.96099708 2.61554386,8.94016374 2.64185965,8.94016374 C2.66744444,8.94016374 2.68827778,8.96099708 2.69229825,8.99023684 L2.80158187,9.69052924 L2.69229825,10.3794912 L2.69229825,10.3794912 Z M3.1605,10.7987164 C3.15611404,10.8286871 3.13454971,10.8495205 3.10786842,10.8495205 C3.08118713,10.8495205 3.05925731,10.8279561 3.05523684,10.7979854 L2.93133333,9.69089474 L3.05523684,8.5578538 C3.05889181,8.52861404 3.08118713,8.50704971 3.10786842,8.50704971 C3.13454971,8.50704971 3.15611404,8.52788304 3.1605,8.5578538 L3.30121637,9.69089474 L3.1605,10.7987164 L3.1605,10.7987164 Z M3.66671345,10.9862164 C3.66305848,11.0213041 3.63637719,11.0476199 3.60348246,11.0476199 C3.57022222,11.0476199 3.54354094,11.0213041 3.54025146,10.9854854 L3.4225614,9.69052924 L3.54025146,8.34696199 C3.54354094,8.31041228 3.57022222,8.28409649 3.60348246,8.28409649 C3.6360117,8.28409649 3.66305848,8.31041228 3.66671345,8.34696199 L3.80048538,9.69052924 L3.66671345,10.9862164 L3.66671345,10.9862164 Z M4.17694737,11.0264211 C4.1732924,11.0684532 4.14149415,11.099155 4.10311696,11.099155 C4.06400877,11.099155 4.03184503,11.0684532 4.02892105,11.0264211 L3.91780994,9.69126023 L4.02928655,8.31077778 C4.03221053,8.26874561 4.06400877,8.23731287 4.10348246,8.23731287 C4.14185965,8.23731287 4.1732924,8.26874561 4.17731287,8.31004678 L4.30340936,9.69126023 L4.17694737,11.0264211 L4.17694737,11.0264211 Z M4.69120175,11.0377515 C4.68791228,11.0856316 4.65172807,11.1214503 4.60677193,11.1214503 C4.5610848,11.1214503 4.52453509,11.0856316 4.52197661,11.0377515 L4.41707895,9.69126023 L4.52197661,8.41055848 C4.52490058,8.36267836 4.5610848,8.32649415 4.60677193,8.32649415 C4.65172807,8.32649415 4.68827778,8.36231287 4.69120175,8.40946199 L4.8103538,9.69162573 L4.69120175,11.0377515 L4.69120175,11.0377515 Z M5.20984211,11.0384825 L5.20984211,11.0377515 C5.20691813,11.091114 5.16488596,11.1327807 5.11444737,11.1327807 C5.06364327,11.1327807 5.02161111,11.0914795 5.01905263,11.0384825 L4.92036842,9.69126023 L5.01905263,7.6075614 C5.02161111,7.55456433 5.06364327,7.51326316 5.11444737,7.51326316 C5.16488596,7.51326316 5.20691813,7.55456433 5.20984211,7.6075614 L5.32168421,9.69126023 L5.20984211,11.0384825 L5.20984211,11.0384825 Z M5.73213743,11.0304415 L5.73213743,11.0297105 C5.72921345,11.0889211 5.68279532,11.1346082 5.62577778,11.1346082 C5.56876023,11.1346082 5.52197661,11.0889211 5.51941813,11.0304415 L5.42731287,9.69199123 L5.51941813,7.13131871 C5.52197661,7.07210819 5.56876023,7.02642105 5.62577778,7.02642105 C5.68279532,7.02642105 5.72921345,7.07210819 5.73213743,7.13131871 L5.83630409,9.69199123 L5.73213743,11.0304415 L5.73213743,11.0304415 Z M6.25881871,11.0169181 L6.25881871,11.0161871 C6.25589474,11.0812456 6.20472515,11.1316842 6.14185965,11.1316842 C6.07826316,11.1316842 6.02709357,11.0808801 6.02490058,11.0169181 L5.93900877,9.69199123 L6.02490058,6.91786842 C6.02709357,6.85280994 6.07826316,6.80164035 6.14185965,6.80164035 C6.20472515,6.80164035 6.25589474,6.85317544 6.25881871,6.91786842 L6.35567544,9.69199123 L6.25881871,11.0169181 L6.25881871,11.0169181 Z M6.78952047,11.0077807 L6.78952047,11.0092427 L6.78952047,11.0085117 C6.78659649,11.0797836 6.73104094,11.1349737 6.66159649,11.1349737 C6.59215205,11.1349737 6.5358655,11.0794181 6.53367251,11.0092427 L6.45435965,9.69199123 L6.53367251,6.82430117 C6.5358655,6.75302924 6.59215205,6.69783918 6.66159649,6.69783918 C6.73104094,6.69783918 6.78732749,6.75266374 6.78952047,6.82430117 L6.87906725,9.69199123 L6.78952047,11.0085117 C6.78952047,11.0085117 6.78952047,11.0085117 6.78952047,11.0077807 L6.78952047,11.0077807 Z M7.32424269,10.9964503 L7.32424269,10.9957193 C7.32204971,11.0728392 7.26137719,11.1342427 7.1857193,11.1342427 C7.10969591,11.1342427 7.04865789,11.0728392 7.04719591,10.9964503 L6.97409649,9.69235673 L7.04719591,6.89813158 C7.04865789,6.8210117 7.10969591,6.76033918 7.1857193,6.76033918 C7.26137719,6.76033918 7.32204971,6.8202807 7.32424269,6.89813158 L7.40647953,9.69235673 L7.32424269,10.9964503 L7.32424269,10.9964503 Z M7.86298538,10.9884094 L7.86298538,10.9869474 C7.8607924,11.0706462 7.79500292,11.1360702 7.71386257,11.1360702 C7.63162573,11.1360702 7.56620175,11.0702807 7.56437427,10.9884094 L7.4974883,9.69272222 L7.56437427,7.00010526 C7.56620175,6.91640643 7.63199123,6.85171345 7.71386257,6.85171345 C7.79536842,6.85171345 7.8607924,6.91677193 7.86298538,6.99937427 L7.93754678,9.69272222 L7.86298538,10.9884094 L7.86298538,10.9884094 Z M8.40574854,10.9800029 L8.40574854,10.9792719 C8.40428655,11.0669912 8.33228363,11.1393596 8.24566082,11.1393596 C8.15867251,11.1393596 8.08703509,11.0673567 8.0855731,10.9800029 C8.0855731,10.9800029 8.02490058,9.69418421 8.02490058,9.69235673 L8.0855731,6.48914035 C8.08703509,6.40142105 8.15830702,6.32978363 8.24566082,6.32978363 C8.33191813,6.32978363 8.40428655,6.40142105 8.40574854,6.48914035 L8.4733655,9.69308772 L8.40574854,10.9800029 L8.40574854,10.9800029 Z M8.94595322,10.9620936 L8.94595322,10.9606316 C8.94449123,11.0541988 8.86810234,11.1305877 8.77526608,11.1305877 C8.68242982,11.1305877 8.60530994,11.0541988 8.60421345,10.9613626 L8.53440351,9.69272222 L8.60421345,6.19893567 C8.60530994,6.10500292 8.68242982,6.02824854 8.77526608,6.02824854 C8.86810234,6.02824854 8.94449123,6.10500292 8.94595322,6.19857018 L9.02234211,9.69272222 L8.94595322,10.9620936 L8.94595322,10.9620936 Z M13.5599883,11.1419181 C13.532576,11.1419181 9.26393567,11.1404561 9.2599152,11.1397251 C9.16707895,11.1305877 9.09361404,11.0512749 9.09215205,10.9562456 L9.09215205,6.033 C9.09361404,5.94235673 9.12431579,5.8959386 9.24164035,5.85025146 C9.54280994,5.73402339 9.88381871,5.66457895 10.2343304,5.66457895 C11.664155,5.66457895 12.8363041,6.76143567 12.9598421,8.15946199 C13.1444181,8.08234211 13.3476345,8.03957895 13.5599883,8.03957895 C14.4170789,8.03957895 15.1115234,8.7332924 15.1115234,9.59074854 C15.1115234,10.4474737 14.4170789,11.1419181 13.5599883,11.1419181 L13.5599883,11.1419181 Z" id="Shape"></path>
                </g>
            </g>
        </g>
    </g>
</svg>