<?xml version="1.0" encoding="UTF-8" standalone="no"?>
<svg width="512px" height="512px" viewBox="0 0 512 512" version="1.1" xmlns="http://www.w3.org/2000/svg" xmlns:xlink="http://www.w3.org/1999/xlink" xmlns:sketch="http://www.bohemiancoding.com/sketch/ns">
    <!-- Generator: Sketch 3.1 (8751) - http://www.bohemiancoding.com/sketch -->
    <title>Group</title>
    <desc>Created with Sketch.</desc>
    <defs></defs>
    <g id="Page-1" stroke="none" stroke-width="1" fill="none" fill-rule="evenodd" sketch:type="MSPage">
        <g id="volume-mute" sketch:type="MSLayerGroup" fill="#FFFFFF">
            <g id="Group" sketch:type="MSShapeGroup">
                <path d="M223.9,185 L159,185 L159,263 L223.9,263 L271,314.3 L271,133.7 L223.9,185 Z" id="Shape"></path>
                <path d="M332.5,28.1 C332.1,27.9 331.8,27.7 331.4,27.5 C299.5,10 262.9,0 224,0 C100.3,0 0,100.3 0,224 C0,308.3 46.6,381.6 115.4,419.9 C115.8,420.1 116.1,420.4 116.5,420.6 C148.5,438 185.1,448 224,448 C347.7,448 448,347.7 448,224 C448,139.7 401.4,66.3 332.5,28.1 L332.5,28.1 Z M361.9,323.4 L304,265.1 L304,341.8 L323.6,361.7 C295.6,382 261.3,394.4 224.1,394.4 C202.5,394.4 181.8,390.2 162.8,382.9 C156.3,380.4 149.9,377.6 143.8,374.3 C90.2,345.6 53.7,289.1 53.7,224 C53.7,186.8 66.1,152.6 86.4,124.6 L121.7,160 L198.4,160 L124.8,86.2 C152.8,66 186.9,53.6 224.2,53.6 C245.8,53.6 266.4,57.8 285.5,65.1 C291.6,67.5 297.7,70.1 303.4,73.1 C357.6,101.6 394.7,158.4 394.7,223.9 C394.5,261.3 382.2,295.4 361.9,323.4 L361.9,323.4 Z" id="Shape"></path>
            </g>
        </g>
    </g>
</svg>
